<?xml version="1.0" encoding="UTF-8" standalone="no"?>
<!DOCTYPE svg PUBLIC "-//W3C//DTD SVG 1.1//EN" "http://www.w3.org/Graphics/SVG/1.1/DTD/svg11.dtd">
<svg width="100%" height="100%" viewBox="0 0 256 256" version="1.1" xmlns="http://www.w3.org/2000/svg" xmlns:xlink="http://www.w3.org/1999/xlink" xml:space="preserve" xmlns:serif="http://www.serif.com/" style="fill-rule:evenodd;clip-rule:evenodd;stroke-linecap:round;stroke-linejoin:round;stroke-miterlimit:1.5;">
    <g transform="matrix(1,0,0,1,-278.5,-179.5)">
        <g transform="matrix(1,0,0,1,5,50)">
            <path d="M499.652,260C499.318,261.174 498.751,262.278 497.974,263.242L496.167,265.483C490.668,272.305 488.862,281.389 491.331,289.797C491.815,291.443 492.143,292.559 492.143,292.559C492.731,294.563 492.616,296.708 491.817,298.638C491.018,300.568 489.582,302.167 487.748,303.168L485.221,304.547C477.53,308.746 472.384,316.447 471.449,325.159L471.141,328.022C470.918,330.099 469.991,332.037 468.514,333.514C467.037,334.991 465.099,335.918 463.022,336.141L460.159,336.449C451.447,337.384 443.746,342.53 439.547,350.221L438.168,352.748C437.167,354.582 435.568,356.018 433.638,356.817C431.708,357.616 429.563,357.731 427.559,357.143L424.797,356.331C416.389,353.862 407.305,355.668 400.483,361.167L398.242,362.974C396.615,364.285 394.589,365 392.5,365C390.411,365 388.385,364.285 386.758,362.974L384.517,361.167C377.695,355.668 368.611,353.862 360.203,356.331L357.441,357.143C355.437,357.731 353.292,357.616 351.362,356.817C349.432,356.018 347.833,354.582 346.832,352.748L345.453,350.221C341.254,342.53 333.553,337.384 324.841,336.449L321.978,336.141C319.901,335.918 317.963,334.991 316.486,333.514C315.009,332.037 314.082,330.099 313.859,328.022L313.551,325.159C312.616,316.447 307.47,308.746 299.779,304.547L297.252,303.168C295.418,302.167 293.982,300.568 293.183,298.638C292.384,296.708 292.269,294.563 292.857,292.559L293.669,289.797C296.138,281.389 294.332,272.305 288.833,265.483L287.026,263.242C285.715,261.615 285,259.589 285,257.5C285,255.411 285.715,253.385 287.026,251.758L288.833,249.517C294.332,242.695 296.138,233.611 293.669,225.203C293.185,223.557 292.857,222.441 292.857,222.441C292.269,220.437 292.384,218.292 293.183,216.362C293.982,214.432 295.418,212.833 297.252,211.832L299.779,210.453C307.47,206.254 312.616,198.553 313.551,189.841L313.859,186.978C314.082,184.901 315.009,182.963 316.486,181.486C317.963,180.009 319.901,179.082 321.978,178.859L324.841,178.551C333.553,177.616 341.254,172.47 345.453,164.779L346.832,162.252C347.833,160.418 349.432,158.982 351.362,158.183C353.292,157.384 355.437,157.269 357.441,157.857L360.203,158.669C368.611,161.138 377.695,159.332 384.517,153.833C385.853,152.756 386.758,152.026 386.758,152.026C388.385,150.715 390.411,150 392.5,150C394.589,150 396.615,150.715 398.242,152.026C398.242,152.026 399.147,152.756 400.483,153.833C407.305,159.332 416.389,161.138 424.797,158.669L427.559,157.857C429.563,157.269 431.708,157.384 433.638,158.183C435.568,158.982 437.167,160.418 438.168,162.252L439.547,164.779C439.832,165.3 440.133,165.81 440.449,166.308L390,260L499.652,260Z" style="fill:rgb(255,209,114);stroke:rgb(75,60,0);stroke-width:6px;"/>
            <path d="M474.962,260C473.637,304.381 437.195,340 392.5,340C346.967,340 310,303.033 310,257.5C310,211.967 346.967,175 392.5,175C406.287,175 419.289,178.389 430.718,184.381L390,260L474.962,260Z" style="fill:rgb(103,56,255);stroke:rgb(75,60,0);stroke-width:6px;"/>
        </g>
        <g transform="matrix(1,0,0,1,23,39)">
            <g>
                <path d="M440.484,166.363C444.833,173.173 452.059,177.681 460.159,178.551L463.022,178.859C465.099,179.082 467.037,180.009 468.514,181.486C469.991,182.963 470.918,184.901 471.141,186.978L471.449,189.841C472.384,198.553 477.53,206.254 485.221,210.453C486.727,211.275 487.748,211.832 487.748,211.832C489.582,212.833 491.018,214.432 491.817,216.362C492.616,218.292 492.731,220.437 492.143,222.441C492.143,222.441 491.815,223.557 491.331,225.203C488.862,233.611 490.668,242.695 496.167,249.517L497.974,251.758C499.285,253.385 500,255.411 500,257.5C500,258.424 499.652,260 499.652,260L390,260L440.484,166.363Z" style="fill:rgb(255,209,114);stroke:rgb(75,60,0);stroke-width:6px;"/>
                <path d="M390,260L430.718,184.381C457.034,198.178 475,225.757 475,257.5C475,258.335 474.988,259.168 474.963,260L390,260Z" style="fill:rgb(103,56,255);stroke:rgb(75,60,0);stroke-width:6px;"/>
            </g>
        </g>
        <g transform="matrix(1,0,0,1,5,50)">
            <path d="M353,160C351.311,162.799 351.846,162.015 350,164.634C345.839,170.536 340.981,175.697 334.073,178.847C329.857,180.77 323.134,180.403 319.477,182.794C318.628,183.35 317.85,187.376 317.549,188.224C315.641,193.61 314.489,199.267 311.43,204.178C308.766,208.456 305.318,211.895 301.262,214.834C300.525,215.368 296.547,217.331 296.425,218.327C296.134,220.69 297.44,224.399 297.72,226.679C298.409,232.297 298.452,238.183 296.897,243.667C295.707,247.868 293.492,251.323 290.988,254.848C290.545,255.472 288.402,258.052 288.694,258.63C293.126,267.426 297.733,274.673 297.461,285.112C297.337,289.913 295.027,292.339 295,297" style="fill:none;stroke:rgb(244,162,0);stroke-width:4.5px;"/>
        </g>
        <g transform="matrix(1,0,0,1,5,50)">
            <path d="M353.087,190.526C345,195 338.38,201.251 333,208C315.603,229.823 309.151,256.581 320.332,286.597" style="fill:none;stroke:rgb(0,44,125);stroke-width:4.5px;"/>
        </g>
    </g>
</svg>
